<svg id="Layer_1" data-name="Layer 1" xmlns="http://www.w3.org/2000/svg" viewBox="0 0 491.32 358.5"><defs><style>.cls-1,.cls-2{fill:none;stroke-linecap:round;stroke-width:6.37px;}.cls-1{stroke:#24d24e;}.cls-2{stroke:#f73173;}.cls-3{fill:#545870;stroke:#545870;}</style></defs><title>exberry</title><line class="cls-1" x1="190.32" y1="167.57" x2="165.04" y2="193.74"/><line class="cls-1" x1="171.4" y1="187.15" x2="149.22" y2="210.12"/><line class="cls-2" x1="148.11" y1="167.78" x2="159.54" y2="178.41"/><line class="cls-2" x1="179.24" y1="199.7" x2="190.43" y2="209.98"/><path class="cls-3" d="M126.54,197.74l4.84,2.59a25.29,25.29,0,0,1-5.5,7.6,22.25,22.25,0,0,1-7.1,4.37,24.94,24.94,0,0,1-8.92,1.5q-11,0-17.21-7.21a24.3,24.3,0,0,1-6.2-16.28A24,24,0,0,1,91.71,175q6.65-8.55,17.86-8.54a22.24,22.24,0,0,1,18.37,8.74q4.88,6.17,4.92,15.36H92.41a18.39,18.39,0,0,0,5,12.92,15.91,15.91,0,0,0,12,5,18.9,18.9,0,0,0,6.69-1.21,17.83,17.83,0,0,0,5.53-3.18A26.89,26.89,0,0,0,126.54,197.74Zm0-12.11a19.14,19.14,0,0,0-3.37-7.42,16.13,16.13,0,0,0-5.87-4.48,18.07,18.07,0,0,0-7.68-1.7,16.45,16.45,0,0,0-11.38,4.27q-3.45,3.12-5.22,9.33Z"/><path class="cls-3" d="M213.13,205.49a31.07,31.07,0,0,1-4.43-12.12V150.69h5.75v25.14a24.27,24.27,0,0,1,8.17-6.67,22.25,22.25,0,0,1,9.9-2.2,22,22,0,0,1,16.31,6.94,23.2,23.2,0,0,1,6.77,16.84,22.83,22.83,0,0,1-6.81,16.64,22.28,22.28,0,0,1-16.43,6.9A25.43,25.43,0,0,1,222,212.16,26,26,0,0,1,213.13,205.49Zm18.73,3.24a17.43,17.43,0,0,0,9-2.4,17.78,17.78,0,0,0,6.51-6.68,18.2,18.2,0,0,0,2.42-9.12,18.44,18.44,0,0,0-2.44-9.13,17.56,17.56,0,0,0-6.57-6.78,17.27,17.27,0,0,0-8.81-2.4,18.18,18.18,0,0,0-9,2.4,16.71,16.71,0,0,0-6.57,6.53,18.55,18.55,0,0,0-2.3,9.22,17.91,17.91,0,0,0,5.17,13.1A17.06,17.06,0,0,0,231.86,208.73Z"/><path class="cls-3" d="M303.91,198.22l4.85,2.58a25.19,25.19,0,0,1-5.51,7.6,22.06,22.06,0,0,1-7.1,4.38,24.92,24.92,0,0,1-8.91,1.5q-11,0-17.21-7.21a24.31,24.31,0,0,1-6.21-16.29,24,24,0,0,1,5.26-15.28A21.5,21.5,0,0,1,287,167a22.19,22.19,0,0,1,18.36,8.75q4.89,6.15,4.93,15.36H269.78a18.45,18.45,0,0,0,5,12.92,15.94,15.94,0,0,0,11.95,5,19.22,19.22,0,0,0,6.7-1.21,17.91,17.91,0,0,0,5.52-3.19A27,27,0,0,0,303.91,198.22Zm0-12.12a19,19,0,0,0-3.37-7.41,15.94,15.94,0,0,0-5.87-4.48A17.93,17.93,0,0,0,287,172.5a16.47,16.47,0,0,0-11.38,4.28q-3.45,3.12-5.22,9.32Z"/><path class="cls-3" d="M321,193.61v-5.42a24.4,24.4,0,0,1,1.89-6.61q2.86-7.07,7.72-10.35c3.23-2.19,5.92-3.29,8.05-3.29a10.17,10.17,0,0,1,5.09,1.57l-3,4.84q-3.83-1.4-7.58,2.26a19.88,19.88,0,0,0-5.2,8q-1.06,3.82-1.07,14.34v15.23H321Z"/><path class="cls-3" d="M352.38,193.61v-5.42a24.4,24.4,0,0,1,1.89-6.61q2.88-7.07,7.72-10.35c3.23-2.19,5.92-3.29,8.05-3.29a10.23,10.23,0,0,1,5.1,1.57l-3,4.84q-3.83-1.4-7.58,2.26a19.88,19.88,0,0,0-5.2,8q-1.07,3.82-1.06,14.34v15.23h-5.92Z"/><path class="cls-3" d="M382.4,168.11h6.12L404,202.82l15-34.71h6.2l-26.9,61.49h-6.12l8.67-19.84Z"/></svg>